<svg width="24" height="24" xmlns="http://www.w3.org/2000/svg"><g fill="none" fill-rule="evenodd"><path d="M0 0h24v24H0z"/><path d="M7.167 7.165a.513.513 0 0 1 .753.02l3.966 4.439 4.204-4.46a.514.514 0 0 1 .753 0c.21.223.21.578 0 .8l-4.594 4.873a.51.51 0 0 1-.757-.01L7.147 7.963a.587.587 0 0 1 .02-.798Zm0 4a.513.513 0 0 1 .753.02l3.966 4.439 4.204-4.46a.514.514 0 0 1 .753 0c.21.223.21.578 0 .8l-4.594 4.873a.51.51 0 0 1-.757-.01l-4.345-4.864a.587.587 0 0 1 .02-.798Z" fill="#000" fill-rule="nonzero"/></g></svg>