<?xml version="1.0" encoding="UTF-8"?>
<svg width="24px" height="24px" viewBox="0 0 24 24" version="1.1" xmlns="http://www.w3.org/2000/svg" xmlns:xlink="http://www.w3.org/1999/xlink">
    <title>01_Common_Btn/1_Common/common_filter</title>
    <g id="01_Common_Btn/1_Common/common_filter" stroke="none" stroke-width="1" fill="none" fill-rule="evenodd">
        <rect id="矩形" x="0" y="0" width="24" height="24"></rect>
        <path d="M10.8894712,12.3579304 C10.9615912,12.4469647 11.000944,12.5580679 11.000944,12.6726472 L11.000944,18.1756285 L12.000944,19.0616285 L12.000944,12.6726472 C12.000944,12.5580679 12.0402968,12.4469647 12.1124169,12.3579304 L16.4524757,7 L6.54941234,7 L10.8894712,12.3579304 Z M5.11241689,6.81471679 C4.84763352,6.48783392 5.08027476,6 5.50094404,6 L17.500944,6 C17.9216133,6 18.1542546,6.48783392 17.8894712,6.81471679 L13.000944,12.8497475 L13.000944,20.1726472 C13.000944,20.6036896 12.491994,20.8327362 12.1693665,20.5468882 L10.1693665,18.7748882 C10.0622582,18.6799903 10.000944,18.5437479 10.000944,18.4006472 L10.000944,12.8497475 L5.11241689,6.81471679 Z" id="Color" fill="#000000" fill-rule="nonzero"></path>
    </g>
</svg>