<?xml version="1.0" encoding="UTF-8"?>
<svg width="24px" height="24px" viewBox="0 0 24 24" version="1.1" xmlns="http://www.w3.org/2000/svg" xmlns:xlink="http://www.w3.org/1999/xlink">
    <title>guidang</title>
    <g id="guidang" stroke="none" stroke-width="1" fill="none" fill-rule="evenodd">
        <path d="M19,8 C19.6,8 20,8.4 20,9 L20,18 C20,18.6 19.6,19 19,19 L5,19 C4.4,19 4,18.6 4,18 L4,6.5 C4,6.2 4.2,6 4.5,6 L9.28578644,6 C9.55100293,6 9.80535684,6.10535684 9.99289322,6.29289322 L11.7,8 L19,8 Z M5,7 L5,8 L10.3,8 L9.3,7 L5,7 Z M5,18 L19,18 L19,9 L5,9 L5,18 Z" id="Color" fill="#3B4155" fill-rule="nonzero"></path>
    </g>
</svg>