<?xml version="1.0" encoding="UTF-8"?>
<svg width="24px" height="24px" viewBox="0 0 24 24" version="1.1" xmlns="http://www.w3.org/2000/svg" xmlns:xlink="http://www.w3.org/1999/xlink">
    <title>01_Common_Btn/1_Common/common_password_unvisible</title>
    <g id="01_Common_Btn/1_Common/common_password_unvisible" stroke="none" stroke-width="1" fill="none" fill-rule="evenodd">
        <rect id="矩形" x="0" y="0" width="24" height="24"></rect>
        <path d="M15.951597,16.1747895 L15.4637793,15.2688423 C16.7482704,14.5280264 17.7896481,13.3871634 18.4,12 C17.7,10.4 16.4,9.1 14.8,8.4 C13.7173794,7.90508771 12.5677834,7.72591603 11.4518367,7.81809182 L10.9425055,6.87219093 C11.2902377,6.82452644 11.643367,6.8 12,6.8 C15.3,6.8 18.3,8.9 19.5,12 C18.8459318,13.7986874 17.5902627,15.2631521 15.951597,16.1747895 Z M13.0526854,17.1188778 C9.39280574,17.5842302 5.79360559,15.5358553 4.5,12 C5.18927483,10.2193734 6.47242439,8.76867713 8.06518279,7.85637297 L8.53434065,8.72766615 C7.2628962,9.45487653 6.20895349,10.5791085 5.6,12 C6.7,14.5 9.2,16.2 12,16.2 C12.1834747,16.2 12.3656612,16.1927006 12.5462501,16.1783551 L13.0526854,17.1188778 Z M12.0888895,9.00118987 C13.7451078,9.04562862 15,10.329754 15,12 C15,12.5934866 14.8415591,13.1382221 14.5629711,13.5959128 L13.9478045,12.4534605 C13.9819381,12.3076475 14,12.1558306 14,12 C14,11.1436677 13.4545665,10.4085428 12.6939526,10.1248785 L12.0888895,9.00118987 Z M11.9111105,14.9988101 C10.2548921,14.9543714 9,13.670246 9,12 C9,11.4065134 9.1584409,10.8617779 9.43702891,10.4040872 L10.0521955,11.5465395 C10.0180619,11.6923525 10,11.8441694 10,12 C10,12.8563323 10.5454335,13.5914572 11.3060474,13.8751215 L11.9111105,14.9988101 Z M7.82271454,5.29681436 L8.70318564,4.82271454 L16.1772855,18.7031856 L15.2968144,19.1772855 L7.82271454,5.29681436 Z" id="Color" fill="#000000" fill-rule="nonzero"></path>
    </g>
</svg>