<?xml version="1.0" encoding="UTF-8"?>
<svg width="24px" height="24px" viewBox="0 0 24 24" version="1.1" xmlns="http://www.w3.org/2000/svg" xmlns:xlink="http://www.w3.org/1999/xlink">
    <title>01_Common_Btn/1_Common/common_angle_line_right</title>
    <g id="01_Common_Btn/1_Common/common_angle_line_right" stroke="none" stroke-width="1" fill="none" fill-rule="evenodd">
        <rect id="矩形" x="0" y="0" width="24" height="24"></rect>
        <path d="M17.5,20 C17.224,20 17,19.776 17,19.5 L17,4.5 C17,4.224 17.224,4 17.5,4 C17.776,4 18,4.224 18,4.5 L18,19.5 C18,19.776 17.776,20 17.5,20 Z M6.15989789,4.87455622 C5.96325344,4.69091953 5.94554102,4.37457726 6.12033609,4.16798598 C6.29513116,3.9613947 6.59624238,3.94278633 6.79288683,4.12642302 L14.8081225,11.5477023 C15.0440959,11.7680663 15.0653508,12.1476771 14.8555967,12.3955866 C14.8327897,12.4215015 14.8327897,12.4215015 14.8081225,12.4454622 L6.79309167,19.873577 C6.59644722,20.0572137 6.29533599,20.0386053 6.12054092,19.832014 C5.94574585,19.6254227 5.96345828,19.3090805 6.16010273,19.1254438 L13.8546829,11.9965822 L6.15989789,4.87455622 Z" id="Color" fill="#000000" fill-rule="nonzero"></path>
    </g>
</svg>