<?xml version="1.0" encoding="UTF-8"?>
<svg width="24px" height="24px" viewBox="0 0 24 24" version="1.1" xmlns="http://www.w3.org/2000/svg" xmlns:xlink="http://www.w3.org/1999/xlink">
    <title>01_Common_Btn/1_Common/common_calendar</title>
    <g id="01_Common_Btn/1_Common/common_calendar" stroke="none" stroke-width="1" fill="none" fill-rule="evenodd">
        <rect id="矩形" x="0" y="0" width="24" height="24"></rect>
        <path d="M18.0020527,6 L16.0020527,6 L16.0020527,5.5 C16.0020527,5.22385763 15.7781951,5 15.5020527,5 C15.2259104,5 15.0020527,5.22385763 15.0020527,5.5 L15.0020527,6 L9.00205275,6 L9.00205275,5.5 C9.00205275,5.22385763 8.77819512,5 8.50205275,5 C8.22591037,5 8.00205275,5.22385763 8.00205275,5.5 L8.00205275,6 L6.00205275,6 C5.73174979,5.98211806 5.46687299,6.08171855 5.27532214,6.27326939 C5.08377129,6.46482024 4.98417081,6.72969704 5.00205275,7 L5.00205275,18 C4.98417081,18.270303 5.08377129,18.5351798 5.27532214,18.7267306 C5.46687299,18.9182815 5.73174979,19.0178819 6.00205275,19 L18.0020527,19 C18.2723557,19.0178819 18.5372325,18.9182815 18.7287834,18.7267306 C18.9203342,18.5351798 19.0199347,18.270303 19.0020527,18 L19.0020527,7 C19.0199347,6.72969704 18.9203342,6.46482024 18.7287834,6.27326939 C18.5372325,6.08171855 18.2723557,5.98211806 18.0020527,6 Z M18.0020527,18 L6.00205275,18 L6.00205275,11 L18.0020527,11 L18.0020527,18 Z M6.00205275,10 L6.00205275,7 L8.00205275,7 L8.00205275,7.5 C8.00205275,7.77614237 8.22591037,8 8.50205275,8 C8.77819512,8 9.00205275,7.77614237 9.00205275,7.5 L9.00205275,7 L15.0020527,7 L15.0020527,7.5 C15.0020527,7.77614237 15.2259104,8 15.5020527,8 C15.7781951,8 16.0020527,7.77614237 16.0020527,7.5 L16.0020527,7 L18.0020527,7 L18.0020527,10 L6.00205275,10 Z" id="Color" fill="#000000" fill-rule="nonzero"></path>
    </g>
</svg>