<?xml version="1.0" encoding="UTF-8"?>
<svg width="24px" height="24px" viewBox="0 0 24 24" version="1.1" xmlns="http://www.w3.org/2000/svg" xmlns:xlink="http://www.w3.org/1999/xlink">
    <title>01_Common_Btn/1_Common/common_star</title>
    <g id="01_Common_Btn/1_Common/common_star" stroke="none" stroke-width="1" fill="none" fill-rule="evenodd">
        <rect id="矩形" x="0" y="0" width="24" height="24"></rect>
        <path d="M14.3468005,9.14976556 L12.030058,5.00725995 L9.71336428,9.14976489 L5.01762178,10.0392886 L8.28559233,13.4793194 L7.6911668,18.1657984 L12.0300622,16.159363 L16.3685746,18.1657984 L15.774152,13.4792914 L19.0424194,10.0392689 L14.3468005,9.14976556 Z M20.1242118,9.23467186 C20.2176651,9.25237497 20.3040804,9.29621538 20.3732871,9.36103334 C20.5739097,9.54893333 20.5831305,9.86273458 20.3938825,10.061928 L16.8239404,13.8194789 L17.4724186,18.9321118 C17.4841674,19.0247398 17.4693379,19.1187793 17.4296365,19.2034092 C17.3131884,19.4516365 17.016117,19.5591371 16.7661088,19.4435185 L12.0300489,17.2532844 L7.29362489,19.443549 C7.20839066,19.4829638 7.11368059,19.4976859 7.02039204,19.4860213 C6.74675595,19.4518064 6.5528657,19.203824 6.58732604,18.9321371 L7.23580746,13.8194789 L3.66619171,10.0619211 C3.60091731,9.99320996 3.55676816,9.90741646 3.53893957,9.81463641 C3.48725224,9.54565539 3.66496794,9.2860008 3.9358787,9.23468165 L9.06708363,8.26266748 L11.5934672,3.74521403 C11.6387727,3.66420273 11.7060361,3.5974179 11.7876281,3.55243437 C12.0287469,3.41950026 12.3327499,3.50580893 12.4666377,3.74521019 L14.993076,8.26266748 L20.1242118,9.23467186 Z" id="Color" fill="#000000" fill-rule="nonzero"></path>
    </g>
</svg>