<?xml version="1.0" encoding="UTF-8"?>
<svg width="24px" height="24px" viewBox="0 0 24 24" version="1.1" xmlns="http://www.w3.org/2000/svg" xmlns:xlink="http://www.w3.org/1999/xlink">
    <title>01_Common_Btn/1_Common/common_done</title>
    <g id="01_Common_Btn/1_Common/common_done" stroke="none" stroke-width="1" fill="none" fill-rule="evenodd">
        <rect id="矩形" x="0" y="0" width="24" height="24"></rect>
        <path d="M17.8670458,8.14789916 C17.7731625,8.05324284 17.6453646,8 17.5120458,8 C17.378727,8 17.2509291,8.05324284 17.1570458,8.14789916 L10.5070458,14.7978992 L6.85704581,11.1478992 C6.66098473,10.9518381 6.3431069,10.9518381 6.14704581,11.1478992 C5.95098473,11.3439602 5.95098473,11.6618381 6.14704581,11.8578992 L10.1470458,15.8578992 C10.2409291,15.9525555 10.368727,16.0057983 10.5020458,16.0057983 C10.6353646,16.0057983 10.7631625,15.9525555 10.8570458,15.8578992 L17.8570458,8.85789916 C17.9530367,8.7653558 18.008088,8.63830542 18.0100155,8.50498254 C18.0118436,8.37165966 17.9603922,8.24310925 17.8670458,8.14789916 Z" id="Color" fill="#000000" fill-rule="nonzero"></path>
    </g>
</svg>