<?xml version="1.0" encoding="UTF-8"?>
<svg width="20px" height="20px" viewBox="0 0 20 20" version="1.1" xmlns="http://www.w3.org/2000/svg" xmlns:xlink="http://www.w3.org/1999/xlink">
    <title>01_Common_Btn/1_Common/common_calendar备份</title>
    <g id="01_Common_Btn/1_Common/common_calendar备份" stroke="none" stroke-width="1" fill="none" fill-rule="evenodd">
        <rect id="矩形" fill="#868686" opacity="0" transform="translate(10.000000, 10.000000) scale(-1, 1) translate(-10.000000, -10.000000) " x="0" y="0" width="20" height="20"></rect>
        <path d="M17.5,16 C17.7761424,16 18,16.2238576 18,16.5 C18,16.7761424 17.7761424,17 17.5,17 L3.5,17 C3.22385763,17 3,16.7761424 3,16.5 C3,16.2238576 3.22385763,16 3.5,16 L17.5,16 Z M17.9239992,8.63712435 C17.9736653,8.71659015 18,8.80841396 18,8.90212382 L18,12.0978762 C18,12.3740186 17.7761424,12.5978762 17.5,12.5978762 C17.4062901,12.5978762 17.3144663,12.5715415 17.2350005,12.5218753 L14.6783986,10.9239992 C14.4442304,10.777644 14.3730438,10.4691688 14.519399,10.2350005 C14.5596393,10.170616 14.6140141,10.1162412 14.6783986,10.0760008 L17.2350005,8.47812467 C17.4691688,8.3317695 17.777644,8.40295609 17.9239992,8.63712435 Z M11.5,10 C11.7761424,10 12,10.2238576 12,10.5 C12,10.7761424 11.7761424,11 11.5,11 L3.5,11 C3.22385763,11 3,10.7761424 3,10.5 C3,10.2238576 3.22385763,10 3.5,10 L11.5,10 Z M17.5,4 C17.7761424,4 18,4.22385763 18,4.5 C18,4.77614237 17.7761424,5 17.5,5 L3.5,5 C3.22385763,5 3,4.77614237 3,4.5 C3,4.22385763 3.22385763,4 3.5,4 L17.5,4 Z" id="形状结合" fill="#000000" fill-rule="nonzero" transform="translate(10.500000, 10.500000) scale(-1, 1) translate(-10.500000, -10.500000) "></path>
    </g>
</svg>