<?xml version="1.0" encoding="UTF-8"?>
<svg width="24px" height="24px" viewBox="0 0 24 24" version="1.1" xmlns="http://www.w3.org/2000/svg" xmlns:xlink="http://www.w3.org/1999/xlink">
    <title>01_Common_Btn/1_Common/common_angles_right_sm</title>
    <g id="01_Common_Btn/1_Common/common_angles_right_sm" stroke="none" stroke-width="1" fill="none" fill-rule="evenodd">
        <rect id="矩形" x="0" y="0" width="24" height="24"></rect>
        <path d="M7.175124,7.87314358 C6.95975429,7.68980351 6.94035522,7.37397221 7.13179496,7.16771464 C7.32323471,6.96145706 7.65301894,6.94287874 7.86838865,7.12621881 L12.7898512,11.5531696 C13.0482949,11.7731777 13.0715737,12.1521752 12.841846,12.3996843 C12.8168672,12.4255574 12.8168672,12.4255574 12.7898512,12.4494793 L7.93621966,16.8737812 C7.72084994,17.0571213 7.39106571,17.0385429 7.19962597,16.8322854 C7.00818622,16.6260278 7.02758529,16.3101965 7.24295501,16.1268564 L11.7456213,12.0013245 L7.175124,7.87314358 Z M11.175124,7.87314358 C10.9597543,7.68980351 10.9403552,7.37397221 11.131795,7.16771464 C11.3232347,6.96145706 11.6530189,6.94287874 11.8683887,7.12621881 L16.7898512,11.5531696 C17.0482949,11.7731777 17.0715737,12.1521752 16.841846,12.3996843 C16.8168672,12.4255574 16.8168672,12.4255574 16.7898512,12.4494793 L11.9362197,16.8737812 C11.7208499,17.0571213 11.3910657,17.0385429 11.199626,16.8322854 C11.0081862,16.6260278 11.0275853,16.3101965 11.242955,16.1268564 L15.7456213,12.0013245 L11.175124,7.87314358 Z" id="Color" fill="#000000" fill-rule="nonzero"></path>
    </g>
</svg>