<?xml version="1.0" encoding="UTF-8"?>
<svg width="24px" height="24px" viewBox="0 0 24 24" version="1.1" xmlns="http://www.w3.org/2000/svg" xmlns:xlink="http://www.w3.org/1999/xlink">
    <title>01_Common_Btn/1_Common/common_angles_left_sm</title>
    <g id="01_Common_Btn/1_Common/common_angles_left_sm" stroke="none" stroke-width="1" fill="none" fill-rule="evenodd">
        <rect id="矩形" x="0" y="0" width="24" height="24"></rect>
        <path d="M16.824876,7.87314358 L12.2543787,12.0013245 L16.757045,16.1268564 C16.9724147,16.3101965 16.9918138,16.6260278 16.800374,16.8322854 C16.6089343,17.0385429 16.2791501,17.0571213 16.0637803,16.8737812 L11.2101488,12.4494793 C11.1831328,12.4255574 11.1831328,12.4255574 11.158154,12.3996843 C10.9284263,12.1521752 10.9517051,11.7731777 11.2101488,11.5531696 L16.1316113,7.12621881 C16.3469811,6.94287874 16.6767653,6.96145706 16.868205,7.16771464 C17.0596448,7.37397221 17.0402457,7.68980351 16.824876,7.87314358 Z M12.824876,7.87314358 L8.25437868,12.0013245 L12.757045,16.1268564 C12.9724147,16.3101965 12.9918138,16.6260278 12.800374,16.8322854 C12.6089343,17.0385429 12.2791501,17.0571213 12.0637803,16.8737812 L7.2101488,12.4494793 C7.18313275,12.4255574 7.18313275,12.4255574 7.15815396,12.3996843 C6.92842626,12.1521752 6.95170515,11.7731777 7.2101488,11.5531696 L12.1316113,7.12621881 C12.3469811,6.94287874 12.6767653,6.96145706 12.868205,7.16771464 C13.0596448,7.37397221 13.0402457,7.68980351 12.824876,7.87314358 Z" id="Color" fill="#000000" fill-rule="nonzero"></path>
    </g>
</svg>