<?xml version="1.0" encoding="UTF-8"?>
<svg width="24px" height="24px" viewBox="0 0 24 24" version="1.1" xmlns="http://www.w3.org/2000/svg" xmlns:xlink="http://www.w3.org/1999/xlink">
    <title>01_Common_Btn/1_Common/common_delete</title>
    <g id="01_Common_Btn/1_Common/common_delete" stroke="none" stroke-width="1" fill="none" fill-rule="evenodd">
        <rect id="矩形" x="0" y="0" width="24" height="24"></rect>
        <path d="M17.5,7 C17.775,7 18,7.225 18,7.5 C18,7.775 17.775,8 17.5,8 L17,8 L17,18 C17,18.552 16.552,19 16,19 L8,19 C7.448,19 7,18.552 7,18 L7,8 L6.5,8 C6.225,8 6,7.775 6,7.5 C6,7.225 6.225,7 6.5,7 L17.5,7 Z M16,18 L16,8 L8,8 L8,18 L16,18 Z M10.5,17 C10.225,17 10,16.775 10,16.5 L10,9.5 C10,9.225 10.225,9 10.5,9 C10.775,9 11,9.225 11,9.5 L11,16.5 C11,16.775 10.775,17 10.5,17 Z M13.5,17 C13.225,17 13,16.775 13,16.5 L13,9.5 C13,9.225 13.225,9 13.5,9 C13.775,9 14,9.225 14,9.5 L14,16.5 C14,16.775 13.775,17 13.5,17 Z M9.5,6 C9.225,6 9,5.775 9,5.5 C9,5.225 9.225,5 9.5,5 L14.5,5 C14.775,5 15,5.225 15,5.5 C15,5.775 14.775,6 14.5,6 L9.5,6 Z" id="Color" fill="#000000" fill-rule="nonzero"></path>
    </g>
</svg>