<?xml version="1.0" encoding="UTF-8"?>
<svg width="24px" height="24px" viewBox="0 0 24 24" version="1.1" xmlns="http://www.w3.org/2000/svg" xmlns:xlink="http://www.w3.org/1999/xlink">
    <title>复制 2</title>
    <g id="管理端517/523/61版" stroke="none" stroke-width="1" fill="none" fill-rule="evenodd">
        <g id="014-应用管理-PC应用-查看详情" transform="translate(-632.000000, -150.000000)">
            <g id="复制-2" transform="translate(632.000000, 150.000000)">
                <g id="编组-2" transform="translate(5.000000, 5.000000)">
                    <g id="编组" transform="translate(4.000000, 3.000000)" stroke="#3B4155">
                        <path d="M8,0.5 C8.41421356,0.5 8.78921356,0.667893219 9.06066017,0.939339828 C9.33210678,1.21078644 9.5,1.58578644 9.5,2 L9.5,10 C9.5,10.4142136 9.33210678,10.7892136 9.06066017,11.0606602 C8.78921356,11.3321068 8.41421356,11.5 8,11.5 L2,11.5 C1.58578644,11.5 1.21078644,11.3321068 0.939339828,11.0606602 C0.667893219,10.7892136 0.5,10.4142136 0.5,10 L0.5,2 C0.5,1.58578644 0.667893219,1.21078644 0.939339828,0.939339828 C1.21078644,0.667893219 1.58578644,0.5 2,0.5 Z" id="矩形"></path>
                    </g>
                    <g id="编组" fill="#3B4155" fill-rule="nonzero">
                        <path d="M8,0 C9.1045695,0 10,0.8954305 10,2 L9,2 C9,1.44771525 8.55228475,1 8,1 L2,1 C1.44771525,1 1,1.44771525 1,2 L1,10 C1,10.5522847 1.44771525,11 2,11 L3,11 L3,12 L2,12 C0.8954305,12 0,11.1045695 0,10 L0,2 C0,0.8954305 0.8954305,0 2,0 L8,0 Z" id="形状结合"></path>
                    </g>
                </g>
            </g>
        </g>
    </g>
</svg>