<?xml version="1.0" encoding="UTF-8"?>
<svg width="24px" height="24px" viewBox="0 0 24 24" version="1.1" xmlns="http://www.w3.org/2000/svg" xmlns:xlink="http://www.w3.org/1999/xlink">
    <title>wanggeyuan</title>
    <g id="wanggeyuan" stroke="none" stroke-width="1" fill="none" fill-rule="evenodd">
        <path d="M17,14 L16.9999111,16.633 L19.2810889,15.3169873 L19.7810889,16.1830127 L17.4999111,17.5 L19.7810889,18.8169873 L19.2810889,19.6830127 L16.9999111,18.366 L17,21 L16,21 L15.9999111,18.366 L13.7189111,19.6830127 L13.2189111,18.8169873 L15.4989111,17.5 L13.2189111,16.1830127 L13.7189111,15.3169873 L15.9999111,16.633 L16,14 L17,14 Z M12,4 C14.7614237,4 17,6.23857625 17,9 C17,10.8794484 15.963029,12.5166993 14.4300165,13.3708231 L14.5896394,13.4244477 C14.1867725,13.6136133 13.81653,13.8607545 13.4896598,14.1551236 C13.0142808,14.0527476 12.5147091,14 12,14 C8.6862915,14 6,16.1862915 6,19.5 C6,19.7761424 5.77614237,20 5.5,20 C5.22385763,20 5,19.7761424 5,19.5 C5,16.4884074 6.90182338,14.2244267 9.56998346,13.3708231 C8.036971,12.5166993 7,10.8794484 7,9 C7,6.23857625 9.23857625,4 12,4 Z M12,5 C9.790861,5 8,6.790861 8,9 C8,11.209139 9.790861,13 12,13 C14.209139,13 16,11.209139 16,9 C16,6.790861 14.209139,5 12,5 Z" id="Color" fill="#3B4155" fill-rule="nonzero"></path>
    </g>
</svg>