<?xml version="1.0" encoding="UTF-8"?>
<svg width="24px" height="24px" viewBox="0 0 24 24" version="1.1" xmlns="http://www.w3.org/2000/svg" xmlns:xlink="http://www.w3.org/1999/xlink">
    <title>01_Common_Btn/1_Common/common_attach</title>
    <g id="01_Common_Btn/1_Common/common_attach" stroke="none" stroke-width="1" fill="none" fill-rule="evenodd">
        <rect id="矩形" x="0" y="0" width="24" height="24"></rect>
        <path d="M8.16722604,15.641 C8.01222604,15.796 7.92722604,16.001 7.92722604,16.221 C7.92722604,16.441 8.01222604,16.647 8.16722604,16.802 C8.32122604,16.957 8.52622604,17.042 8.74522604,17.042 C8.96522604,17.042 9.17122604,16.956 9.32622604,16.801 L15.231226,10.896 L16.940226,9.187 C17.288226,8.839 17.477226,8.373 17.473226,7.873 C17.470226,7.373 17.274226,6.926 16.922226,6.575 C16.571226,6.222 16.102226,6.045 15.602226,6.045 C15.094226,6.045 14.633226,6.212 14.288226,6.556 L7.72622604,13.106 C7.72022604,13.1126667 7.45055937,13.3786667 6.91722604,13.904 C5.74722604,15.074 5.69422604,17.072 6.80322604,18.181 C7.38222604,18.759 8.12122604,19.041 8.92922604,18.995 C9.72222604,18.957 10.499226,18.612 11.063226,18.048 L16.724226,12.387 C16.919226,12.192 17.236226,12.192 17.431226,12.387 C17.626226,12.582 17.626226,12.899 17.431226,13.094 L11.770226,18.755 C11.032226,19.493 10.015226,19.945 8.97722604,19.995 C8.91022604,19.998 8.84322604,19.999 8.77722604,19.999 C7.76222604,19.999 6.83122604,19.623 6.13622604,18.928 C5.37322496,18.1654902 4.99788561,17.1485624 5,16.1247211 C5.00220744,15.0646526 5.40905328,13.9971728 6.20922604,13.197 L10.751226,8.654 C10.753226,8.652 11.696226,7.70966667 13.580226,5.827 C14.118226,5.288 14.793226,5.017 15.608226,5 C16.373226,5.005 17.090226,5.305 17.629226,5.844 C18.168226,6.382 18.468226,7.1 18.4733161,7.865 C18.479226,8.634 18.185226,9.354 17.647226,9.893 L11.833226,15.707 L10.033226,17.507 C9.68822604,17.851 9.23122604,18.04 8.74622604,18.041 C8.25922604,18.041 7.80322604,17.852 7.46022604,17.508 C7.11622604,17.165 6.92722604,16.708 6.92722604,16.221 C6.92722604,15.735 7.11622604,15.277 7.46022604,14.934 L13.365226,9.029 C13.560226,8.834 13.877226,8.834 14.072226,9.029 C14.267226,9.224 14.267226,9.541 14.072226,9.736 L8.16722604,15.641 Z" id="Color" fill="#000000" fill-rule="nonzero"></path>
    </g>
</svg>