<?xml version="1.0" encoding="UTF-8"?>
<svg width="24px" height="24px" viewBox="0 0 24 24" version="1.1" xmlns="http://www.w3.org/2000/svg" xmlns:xlink="http://www.w3.org/1999/xlink">
    <title>01_Common_Btn/1_Common/common_details</title>
    <g id="01_Common_Btn/1_Common/common_details" stroke="none" stroke-width="1" fill="none" fill-rule="evenodd">
        <rect id="矩形" x="0" y="0" width="24" height="24"></rect>
        <path d="M8,15 L17,15 L17,16 L8,16 L8,15 Z M8,13 L17,13 L17,12 L8,12 L8,13 Z M13,9 L8,9 L8,10 L13,10 L13,9 Z M19,9.4 L19,19 C19,19.6 18.6,20 18,20 L7.1,20 C6.6,20 6,19.5 6,19 L6,6 C6,5.4 6.6,5 7.1,5 L14.3,5 C14.6,5 14.8,5.1 15,5.3 L18.7,8.7 C18.9,8.8 19,9.1 19,9.4 Z M15,9 L17.6,9 L15,6.7 L15,9 Z M18,10 L14.5,10 C14.2,10 14,9.8 14,9.5 L14,6 L7,6 L7,19 L18,19 L18,10 Z" id="Color" fill="#000000" fill-rule="nonzero"></path>
    </g>
</svg>