<?xml version="1.0" encoding="UTF-8"?>
<svg width="24px" height="24px" viewBox="0 0 24 24" version="1.1" xmlns="http://www.w3.org/2000/svg" xmlns:xlink="http://www.w3.org/1999/xlink">
    <title>01_Common_Btn/2_Infrequently/common_record_search</title>
    <g id="01_Common_Btn/2_Infrequently/common_record_search" stroke="none" stroke-width="1" fill="none" fill-rule="evenodd">
        <path d="M19,11.6713328 C18.7148829,11.318988 18.3776394,11.0105584 18,10.7577745 L18,9 L5,9 L5,16 L11.2560586,16 C11.3818968,16.356029 11.5512673,16.6914942 11.7577745,17 L5.042,17 C4.489,17 4,16.552 4,16 L4,6 C4,5.448 4.489,5 5.042,5 L18.021,5 C18.573,5 19,5.448 19,6 L19,11.6713328 Z M11,13 L11,14 L6,14 L6,13 L11,13 Z M18,6 L5,6 L5,8 L18,8 L18,6 Z M18.4434634,16.3944616 L19.7772824,17.8693151 C20.0618759,18.1702792 20.0486049,18.6449675 19.7476408,18.929561 C19.4466767,19.2141545 18.9719884,19.2008836 18.6873949,18.8999195 L17.3791145,17.4533049 C16.83625,17.7994368 16.191547,18 15.5,18 C13.5670034,18 12,16.4329966 12,14.5 C12,12.5670034 13.5670034,11 15.5,11 C17.4329966,11 19,12.5670034 19,14.5 C19,15.1980754 18.7956322,15.8484181 18.4434634,16.3944616 Z M15.5,17 C16.8807119,17 18,15.8807119 18,14.5 C18,13.1192881 16.8807119,12 15.5,12 C14.1192881,12 13,13.1192881 13,14.5 C13,15.8807119 14.1192881,17 15.5,17 Z" id="Color" fill="#3B4155" fill-rule="nonzero"></path>
    </g>
</svg>