<?xml version="1.0" encoding="UTF-8"?>
<svg width="24px" height="24px" viewBox="0 0 24 24" version="1.1" xmlns="http://www.w3.org/2000/svg" xmlns:xlink="http://www.w3.org/1999/xlink">
    <title>01_Common_Btn/1_Common/common_switch</title>
    <g id="01_Common_Btn/1_Common/common_switch" stroke="none" stroke-width="1" fill="none" fill-rule="evenodd">
        <rect id="矩形" x="0" y="0" width="24" height="24"></rect>
        <path d="M18.5,6 C18.7761424,6 19,6.22385763 19,6.5 L19,6.5 L19,15.5788106 L22,15.5788106 L18.8875475,18.8159469 C18.7958605,18.9282771 18.6563061,19 18.5,19 C18.2238576,19 18,18.7761424 18,18.5 L18,18.5 L18,6.5 C18,6.22385763 18.2238576,6 18.5,6 Z M15.5,17 C15.7761424,17 16,17.2238576 16,17.5 C16,17.7761424 15.7761424,18 15.5,18 L5.5,18 C5.22385763,18 5,17.7761424 5,17.5 C5,17.2238576 5.22385763,17 5.5,17 L15.5,17 Z M15.5,12 C15.7761424,12 16,12.2238576 16,12.5 C16,12.7761424 15.7761424,13 15.5,13 L5.5,13 C5.22385763,13 5,12.7761424 5,12.5 C5,12.2238576 5.22385763,12 5.5,12 L15.5,12 Z M15.5,7 C15.7761424,7 16,7.22385763 16,7.5 C16,7.77614237 15.7761424,8 15.5,8 L5.5,8 C5.22385763,8 5,7.77614237 5,7.5 C5,7.22385763 5.22385763,7 5.5,7 L15.5,7 Z" id="形状结合" fill="#000000"></path>
    </g>
</svg>