<?xml version="1.0" encoding="UTF-8"?>
<svg width="24px" height="24px" viewBox="0 0 24 24" version="1.1" xmlns="http://www.w3.org/2000/svg" xmlns:xlink="http://www.w3.org/1999/xlink">
    <title>01_Common_Btn/1_Common/common_close_sm</title>
    <g id="01_Common_Btn/1_Common/common_close_sm" stroke="none" stroke-width="1" fill="none" fill-rule="evenodd">
        <rect id="矩形" x="0" y="0" width="24" height="24"></rect>
        <path d="M12,11.2928932 L16.1464466,7.14644661 C16.3417088,6.95118446 16.6582912,6.95118446 16.8535534,7.14644661 C17.0488155,7.34170876 17.0488155,7.65829124 16.8535534,7.85355339 L12.7071068,12 L16.8535534,16.1464466 C17.0488155,16.3417088 17.0488155,16.6582912 16.8535534,16.8535534 C16.6582912,17.0488155 16.3417088,17.0488155 16.1464466,16.8535534 L12,12.7071068 L7.85355339,16.8535534 C7.65829124,17.0488155 7.34170876,17.0488155 7.14644661,16.8535534 C6.95118446,16.6582912 6.95118446,16.3417088 7.14644661,16.1464466 L11.2928932,12 L7.14644661,7.85355339 C6.95118446,7.65829124 6.95118446,7.34170876 7.14644661,7.14644661 C7.34170876,6.95118446 7.65829124,6.95118446 7.85355339,7.14644661 L12,11.2928932 Z" id="Color" fill="#000000" fill-rule="nonzero"></path>
    </g>
</svg>