<?xml version="1.0" encoding="UTF-8"?>
<svg width="24px" height="24px" viewBox="0 0 24 24" version="1.1" xmlns="http://www.w3.org/2000/svg" xmlns:xlink="http://www.w3.org/1999/xlink">
    <title>01_Common_Btn/1_Common/common_close_f</title>
    <g id="01_Common_Btn/1_Common/common_close_f" stroke="none" stroke-width="1" fill="none" fill-rule="evenodd">
        <path d="M10.7928932,11.5355339 L8.31801948,14.0104076 C8.12275734,14.2056698 8.12275734,14.5222523 8.31801948,14.7175144 C8.51328163,14.9127766 8.82986412,14.9127766 9.02512627,14.7175144 L11.5,12.2426407 L13.9748737,14.7175144 C14.1701359,14.9127766 14.4867184,14.9127766 14.6819805,14.7175144 C14.8772427,14.5222523 14.8772427,14.2056698 14.6819805,14.0104076 L12.2071068,11.5355339 L14.6819805,9.06066017 C14.8772427,8.86539803 14.8772427,8.54881554 14.6819805,8.35355339 C14.4867184,8.15829124 14.1701359,8.15829124 13.9748737,8.35355339 L11.5,10.8284271 L9.02512627,8.35355339 C8.82986412,8.15829124 8.51328163,8.15829124 8.31801948,8.35355339 C8.12275734,8.54881554 8.12275734,8.86539803 8.31801948,9.06066017 L10.7928932,11.5355339 L10.7928932,11.5355339 Z M11.5,4 C15.6,4 19,7.4 19,11.5 C19,15.6 15.6,19 11.5,19 C7.4,19 4,15.6 4,11.5 C4,7.4 7.4,4 11.5,4 Z" id="Color" fill="rgba(59, 65, 85, 0.7)" fill-rule="nonzero"></path>
        <rect id="矩形" x="0" y="0" width="24" height="24"></rect>
    </g>
</svg>