<?xml version="1.0" encoding="UTF-8"?>
<svg width="56px" height="56px" viewBox="0 0 56 56" version="1.1" xmlns="http://www.w3.org/2000/svg" xmlns:xlink="http://www.w3.org/1999/xlink">
    <title>img/default_error_l</title>
    <g id="img/default_error_l" stroke="none" stroke-width="1" fill="none" fill-rule="evenodd">
        <g id="default_update" transform="translate(-1.000000, -1.000000)">
            <g id="Group-13" transform="translate(1.000000, 1.000000)">
                <polygon id="shape" points="0 0 56 0 56 56 0 56"></polygon>
                <g id="default" transform="translate(9.000000, 4.000000)" fill="#3B4155">
                    <path d="M4,0 L23.9999379,0 L23.9999379,0 L38,13.9995117 L38,44 C38,46.209139 36.209139,48 34,48 L4,48 C1.790861,48 2.705415e-16,46.209139 0,44 L0,4 C-2.705415e-16,1.790861 1.790861,-4.82366169e-16 4,0 Z" id="Rectangle-9" opacity="0.0799999982"></path>
                    <path d="M21,36 L17,36 L17,32 L21,32 L21,36 Z M21,30 L17,30 L17,15 L21,15 L21,30 Z" id="Shape" fill-rule="nonzero" opacity="0.24"></path>
                    <polygon id="Path" opacity="0.0799999982" points="24 14 24 0 38 14"></polygon>
                </g>
            </g>
        </g>
    </g>
</svg>