<?xml version="1.0" encoding="UTF-8"?>
<svg width="56px" height="56px" viewBox="0 0 56 56" version="1.1" xmlns="http://www.w3.org/2000/svg" xmlns:xlink="http://www.w3.org/1999/xlink">
    <title>img/default_video_offline_l</title>
    <g id="img/default_video_offline_l" stroke="none" stroke-width="1" fill="none" fill-rule="evenodd">
        <g id="09_Common_Default/default_video_offline_l" transform="translate(3.000000, 8.000000)" fill="#3B4155">
            <path d="M5,0 L5,5 L10,5 L10,0 L38,0 L38,5 L43,5 L43,0 L48,0 L48.0009828,23.254012 C46.5841994,22.1355152 44.8722543,21.3743471 43.0011355,21.1064958 L43,16.5 L38,16.5 L38,21.5 L38.290194,21.4996744 C34.0611473,22.8559817 31,26.8205062 31,31.5 C31,33.9548708 31.8424493,36.2129771 33.254012,38.0009828 L10,38 L10,33 L5,33 L5,38 L0,38 L0,0 L5,0 Z M10,24.75 L5,24.75 L5,29.75 L10,29.75 L10,24.75 Z M10,16.5 L5,16.5 L5,21.5 L10,21.5 L10,16.5 Z M43,8.25 L38,8.25 L38,13.25 L43,13.25 L43,8.25 Z M10,8.25 L5,8.25 L5,13.25 L10,13.25 L10,8.25 Z" id="Combined-Shape" opacity="0.0799999982"></path>
            <path d="M41.5,23 C46.1944204,23 50,26.8055796 50,31.5 C50,36.1944204 46.1944204,40 41.5,40 C36.8055796,40 33,36.1944204 33,31.5 C33,26.8055796 36.8055796,23 41.5,23 Z M47,30 L36,30 L36,33 L47,33 L47,30 Z" id="Combined-Shape-Copy-3" fill-rule="nonzero" opacity="0.3"></path>
            <path d="M30.3700489,17.96 L19.8595498,11.16 L19.2127499,11 C18.56595,11 18,11.56 18,12.2 L18,25.8 C18,26.44 18.4851,27 19.2127499,27 C19.4552999,27 19.6978499,26.92 19.8595498,26.84 L30.3700489,20.04 C30.9359989,19.72 31.1785489,19 30.8551489,18.44 C30.6934489,18.2 30.5317489,18.04 30.3700489,17.96 Z" id="Shape" fill-rule="nonzero" opacity="0.24"></path>
        </g>
    </g>
</svg>