<?xml version="1.0" encoding="UTF-8"?>
<svg width="56px" height="56px" viewBox="0 0 56 56" version="1.1" xmlns="http://www.w3.org/2000/svg" xmlns:xlink="http://www.w3.org/1999/xlink">
    <title>img/default_addperson_l</title>
    <g id="img/default_addperson_l" stroke="none" stroke-width="1" fill="none" fill-rule="evenodd">
        <g id="Group" transform="translate(-1.000000, -1.000000)">
            <polygon id="shape" points="0 0 58 0 58 58 0 58"></polygon>
            <g id="Group-15-Copy" transform="translate(8.000000, 8.000000)" fill="#3B4155" fill-rule="nonzero">
                <g id="Group-15-Copy-8">
                    <path d="M19.6175115,0 C25.324424,0.356682028 27.8211982,3.56682028 28.1778802,6.77695853 L28.1772994,7.17001297 C28.1729434,8.19257889 28.1359176,9.52550827 27.8211982,11.4138249 C29.2479263,11.0571429 28.5345622,13.9105991 28.5345622,14.9806452 C28.5345622,16.0506912 28.1778802,17.4774194 27.1078341,17.1207373 C26.7511521,21.0442396 24.9677419,22.1142857 24.9677419,22.1142857 L24.9677419,26.037788 C24.9677419,26.037788 29.4295067,27.6602479 33.0005765,29.3758935 L33,30 L27,30 L27,38 L33,38 L33,42 L2,42 C0.929953917,42 0,40.7317972 0,39.6617512 L0.000668778802,39.6143396 C0.013375576,39.0218111 0.267511521,33.0287558 5.35023041,30.3179724 C6.39843882,29.7356343 7.75088913,29.0772359 9.09713041,28.4545392 L9.6010735,28.2229198 C12.1970101,27.0371216 14.6239631,26.037788 14.6239631,26.037788 L14.6239631,22.1142857 C14.6239631,22.1142857 12.483871,21.0442396 12.1271889,17.1207373 C11.0571429,17.1207373 10.7004608,15.6940092 10.7004608,14.6239631 C10.7004608,13.5539171 9.98709677,11.0571429 11.4138249,11.0571429 C11.1047005,9.51152074 11.0634839,7.96589862 11.0579883,6.88465008 L11.0571429,6.4202765 L11.0571429,6.4202765 C11.4138249,3.56682028 14.6239631,0.356682028 19.6175115,0 Z" id="Combined-Shape" opacity="0.0799999982"></path>
                    <path d="M39,26 L39,32 L45,32 L45,36 L39,36 L39,42 L35,42 L35,36 L29,36 L29,32 L35,32 L35,26 L39,26 Z" id="Combined-Shape" opacity="0.3"></path>
                </g>
            </g>
        </g>
    </g>
</svg>