<?xml version="1.0" encoding="UTF-8"?>
<svg width="56px" height="56px" viewBox="0 0 56 56" version="1.1" xmlns="http://www.w3.org/2000/svg" xmlns:xlink="http://www.w3.org/1999/xlink">
    <title>img/default_picture_error_l</title>
    <g id="img/default_picture_error_l" stroke="none" stroke-width="1" fill="none" fill-rule="evenodd">
        <g id="default/picture_error" transform="translate(-1.000000, -1.000000)">
            <g id="default_update" transform="translate(1.000000, 1.000000)">
                <g id="bounding-box">
                    <polygon id="shape" points="0 0 56 0 56 56 0 56"></polygon>
                </g>
                <g id="Group" transform="translate(4.000000, 8.000000)" fill="#3B4155" opacity="0.0799999982">
                    <path d="M29.7384033,-2.06057393e-13 L47.9336839,1.12968839 C49.0193396,1.19709337 49.8520699,2.11980488 49.8081152,3.20666263 L48.36002,39.0133893 C48.3153855,40.1170566 47.3845029,40.9755724 46.2808356,40.9309379 L46.2711316,40.9305218 L29.379,40.164 L34,30 L27,20 L32,13.996582 L29.732,0 L29.7384033,-2.06057393e-13 Z M27,14 L22,20 L29,30 L24.066,39.999 L2,40 C0.8954305,40 -2.02813498e-13,39.1045695 -2.0250468e-13,38 L-2.0250468e-13,2 C-2.0308404e-13,0.8954305 0.8954305,-2.06298576e-13 2,-2.06057393e-13 L24.09,0 L27,14 Z" id="Combined-Shape"></path>
                </g>
                <g id="Group" transform="translate(10.000000, 16.000000)" fill="#3B4155" fill-rule="nonzero">
                    <g transform="translate(0.000000, 6.000000)" id="Combined-Shape" opacity="0.159375">
                        <path d="M25.924026,0.089901798 C26.0422023,0.140464749 26.1529113,0.212356071 26.2498414,0.305575766 L26.2498414,0.305575766 L36.6822616,18.5247702 C37.1059128,18.9322045 37.1059128,19.5925656 36.6822616,20 C32.8021417,19.662 29.4164102,19.4101331 26.5250672,19.2443992 L28.003418,16 L20.9986572,6 Z M8.76098611,5.53343475 C9.18409342,5.12176731 9.86933148,5.12176731 10.2924388,5.53343475 L10.2924388,5.53343475 L15.5268962,12.9217541 C16.7371355,11.2039321 17.644815,9.9155656 18.2499347,9.05665461 L18.192,9.13622868 L23,16 L21.5073328,19.0302425 C20.8079469,19.0135643 20.156426,19.0052252 19.5527699,19.0052252 L19.5527699,19.0052252 L18.9530311,19.0045118 C16.4061746,18.9989194 12.2444887,18.9618361 12.2274205,18.9427872 L12.2274205,18.9427872 L0.317330482,18.9427872 C-0.105776827,18.5311198 -0.105776827,17.864409 0.317330482,17.4527416 L0.317330482,17.4527416 Z"></path>
                    </g>
                    <path d="M12,6 C13.6566,6 15,4.6566 15,3 C15,1.3434 13.6566,0 12,0 C10.3434,0 9,1.3434 9,3 C9,4.6566 10.3434,6 12,6 Z" id="Path" opacity="0.0823660714"></path>
                </g>
            </g>
        </g>
    </g>
</svg>