<?xml version="1.0" encoding="UTF-8"?>
<svg width="56px" height="56px" viewBox="0 0 56 56" version="1.1" xmlns="http://www.w3.org/2000/svg" xmlns:xlink="http://www.w3.org/1999/xlink">
    <title>img/default_no_data_map_l</title>
    <defs>
        <path d="M42.6,0.4 L42.6,24.4 L37.6,24.4 L37.6,30.4 L31.6,30.4 L31.6,38.4 L37.6,38.4 L37.6,38.569 L28.6,42.4643396 L14.6,36.4053333 L0.6,42.4643396 L0.6,5.39466667 L14.6,0.4 L28.6,5.39466667 L42.6,0.4 Z" id="path-1"></path>
    </defs>
    <g id="img/default_no_data_map_l" stroke="none" stroke-width="1" fill="none" fill-rule="evenodd">
        <g id="default_update" transform="translate(-1.000000, -1.000000)">
            <g id="bounding-box" transform="translate(1.000000, 1.000000)">
                <polygon id="shape" points="0 0 56 0 56 56 0 56"></polygon>
            </g>
            <g id="baseline-map-24px-copy-2" transform="translate(7.400000, 7.600000)">
                <mask id="mask-2" fill="white">
                    <use xlink:href="#path-1"></use>
                </mask>
                <use id="Combined-Shape" fill="#3B4155" opacity="0.0799999982" xlink:href="#path-1"></use>
                <polygon id="Path" fill="#3B4155" opacity="0.0799999982" mask="url(#mask-2)" points="28.6 42.4 14.6 36.4 14.6 0.4 28.6 5.4"></polygon>
            </g>
            <path d="M51,34 L51,40 L57,40 L57,44 L51,44 L51,50 L47,50 L47,44 L41,44 L41,40 L47,40 L47,34 L51,34 Z" id="Combined-Shape" fill="#3B4155" fill-rule="nonzero" opacity="0.3"></path>
        </g>
    </g>
</svg>