<?xml version="1.0" encoding="UTF-8"?>
<svg width="40px" height="40px" viewBox="0 0 40 40" version="1.1" xmlns="http://www.w3.org/2000/svg" xmlns:xlink="http://www.w3.org/1999/xlink">
    <title>06_Common_Feedback/common_feedback_info_lg</title>
    <g id="06_Common_Feedback/common_feedback_info_lg" stroke="none" stroke-width="1" fill="none" fill-rule="evenodd">
        <rect id="矩形" x="0" y="0" width="40" height="40"></rect>
        <path d="M20,0 C31.045695,0 40,8.954305 40,20 C40,31.045695 31.045695,40 20,40 C8.954305,40 0,31.045695 0,20 C0,8.954305 8.954305,0 20,0 Z M20,16 C19.4477153,16 19,16.4477153 19,17 L19,17 L19,29 C19,29.5522847 19.4477153,30 20,30 C20.5522847,30 21,29.5522847 21,29 L21,29 L21,17 C21,16.4477153 20.5522847,16 20,16 Z M21,11 L19,11 L19,13 L21,13 L21,11 Z" id="Color" fill="#2196F3" fill-rule="nonzero"></path>
    </g>
</svg>