<?xml version="1.0" encoding="UTF-8"?>
<svg width="40px" height="40px" viewBox="0 0 40 40" version="1.1" xmlns="http://www.w3.org/2000/svg" xmlns:xlink="http://www.w3.org/1999/xlink">
    <title>06_Common_Feedback/common_feedback_error_lg</title>
    <g id="06_Common_Feedback/common_feedback_error_lg" stroke="none" stroke-width="1" fill="none" fill-rule="evenodd">
        <rect id="矩形" x="0" y="0" width="40" height="40"></rect>
        <path d="M20,0 C31.045695,0 40,8.954305 40,20 C40,31.045695 31.045695,40 20,40 C8.954305,40 0,31.045695 0,20 C0,8.954305 8.954305,0 20,0 Z M13.7071068,12.2928932 C13.3165825,11.9023689 12.6834175,11.9023689 12.2928932,12.2928932 C11.9023689,12.6834175 11.9023689,13.3165825 12.2928932,13.7071068 L12.2928932,13.7071068 L18.5857864,20 L12.2928932,26.2928932 C11.9023689,26.6834175 11.9023689,27.3165825 12.2928932,27.7071068 C12.6834175,28.0976311 13.3165825,28.0976311 13.7071068,27.7071068 L13.7071068,27.7071068 L20,21.4142136 L26.2928932,27.7071068 C26.6834175,28.0976311 27.3165825,28.0976311 27.7071068,27.7071068 C28.0976311,27.3165825 28.0976311,26.6834175 27.7071068,26.2928932 L27.7071068,26.2928932 L21.4142136,20 L27.7071068,13.7071068 C28.0976311,13.3165825 28.0976311,12.6834175 27.7071068,12.2928932 C27.3165825,11.9023689 26.6834175,11.9023689 26.2928932,12.2928932 L26.2928932,12.2928932 L20,18.5857864 Z" id="Color" fill="#E81123" fill-rule="nonzero"></path>
    </g>
</svg>