<?xml version="1.0" encoding="UTF-8"?>
<svg width="24px" height="24px" viewBox="0 0 24 24" version="1.1" xmlns="http://www.w3.org/2000/svg" xmlns:xlink="http://www.w3.org/1999/xlink">
    <title>06_Common_Feedback/common_feedback_warning_sm</title>
    <g id="06_Common_Feedback/common_feedback_warning_sm" stroke="none" stroke-width="1" fill="none" fill-rule="evenodd">
        <rect id="矩形" x="0" y="0" width="24" height="24"></rect>
        <path d="M12.3379023,5.11648983 C12.4048266,5.16725338 12.4622535,5.23259277 12.5068697,5.30873808 L19.8976169,17.9223426 C20.084253,18.2408699 20.0086038,18.6712323 19.7286495,18.8835838 C19.6285744,18.959493 19.5109902,19 19.3907148,19 L4.60922043,19 C4.27275728,19 4,18.6896613 4,18.3068391 C4,18.1699918 4.03560164,18.0362064 4.10231839,17.9223426 L11.4930656,5.30873808 C11.6797018,4.99021076 12.0579481,4.90413829 12.3379023,5.11648983 Z M12,16 C11.4477153,16 11,16.4477153 11,17 C11,17.5522847 11.4477153,18 12,18 C12.5522847,18 13,17.5522847 13,17 C13,16.4477153 12.5522847,16 12,16 Z M12,8.25 C11.5857864,8.25 11.25,8.58578644 11.25,9 L11.25,9 L11.25,13.5 C11.25,13.9142136 11.5857864,14.25 12,14.25 C12.4142136,14.25 12.75,13.9142136 12.75,13.5 L12.75,13.5 L12.75,9 C12.75,8.58578644 12.4142136,8.25 12,8.25 Z" id="Color" fill="#FF952C" fill-rule="nonzero"></path>
    </g>
</svg>