<?xml version="1.0" encoding="UTF-8"?>
<svg width="24px" height="24px" viewBox="0 0 24 24" version="1.1" xmlns="http://www.w3.org/2000/svg" xmlns:xlink="http://www.w3.org/1999/xlink">
    <title>06_Common_Feedback/common_feedback_error_sm</title>
    <g id="06_Common_Feedback/common_feedback_error_sm" stroke="none" stroke-width="1" fill="none" fill-rule="evenodd">
        <rect id="矩形" x="0" y="0" width="24" height="24"></rect>
        <path d="M12,4 C16.418278,4 20,7.581722 20,12 C20,16.418278 16.418278,20 12,20 C7.581722,20 4,16.418278 4,12 C4,7.581722 7.581722,4 12,4 Z M9.53033009,8.46966991 C9.23743687,8.1767767 8.76256313,8.1767767 8.46966991,8.46966991 C8.1767767,8.76256313 8.1767767,9.23743687 8.46966991,9.53033009 L8.46966991,9.53033009 L10.9393398,12 L8.46966991,14.4696699 C8.1767767,14.7625631 8.1767767,15.2374369 8.46966991,15.5303301 C8.76256313,15.8232233 9.23743687,15.8232233 9.53033009,15.5303301 L9.53033009,15.5303301 L12,13.0606602 L14.4696699,15.5303301 C14.7625631,15.8232233 15.2374369,15.8232233 15.5303301,15.5303301 C15.8232233,15.2374369 15.8232233,14.7625631 15.5303301,14.4696699 L15.5303301,14.4696699 L13.0606602,12 L15.5303301,9.53033009 C15.8232233,9.23743687 15.8232233,8.76256313 15.5303301,8.46966991 C15.2374369,8.1767767 14.7625631,8.1767767 14.4696699,8.46966991 L14.4696699,8.46966991 L12,10.9393398 Z" id="Color" fill="#E81123" fill-rule="nonzero"></path>
    </g>
</svg>