<?xml version="1.0" encoding="UTF-8"?>
<svg width="40px" height="40px" viewBox="0 0 40 40" version="1.1" xmlns="http://www.w3.org/2000/svg" xmlns:xlink="http://www.w3.org/1999/xlink">
    <title>06_Common_Feedback/common_feedback_question_lg</title>
    <g id="06_Common_Feedback/common_feedback_question_lg" stroke="none" stroke-width="1" fill="none" fill-rule="evenodd">
        <rect id="矩形" x="0" y="0" width="40" height="40"></rect>
        <path d="M20,0 C31.046,0 40,8.954 40,20 C40,31.046 31.046,40 20,40 C8.954,40 0,31.046 0,20 C0,8.954 8.954,0 20,0 Z M21,28 L19,28 L19,30 L21,30 L21,28 Z M20.2334096,10 C18.2562929,10 16.7185355,10.6122449 15.6201373,11.8367347 C14.5217391,13.0055659 14,14.5640074 14,16.5120594 L14,16.5120594 L16.1693364,16.5120594 C16.1693364,15.148423 16.4713959,14.0909091 17.0755149,13.3116883 C17.7345538,12.393321 18.7505721,11.9480519 20.1235698,11.9480519 C21.2768879,11.9480519 22.1830664,12.2541744 22.8146453,12.9220779 C23.4187643,13.5343228 23.7482838,14.3970315 23.7482838,15.5102041 C23.7482838,16.2894249 23.4736842,17.012987 22.9244851,17.7087199 C22.7597254,17.9313544 22.4302059,18.2653061 21.9908467,18.7105751 C20.5080092,20.0463822 19.6018307,21.1038961 19.2173913,21.9387755 C18.8878719,22.6345083 18.7231121,23.4415584 18.7231121,24.3599258 L18.7231121,24.3599258 L18.7231121,25 L20.9199085,25 L20.9199085,24.3599258 C20.9199085,23.6085343 21.0846682,22.9406308 21.4416476,22.3283859 C21.7162471,21.8274583 22.1281465,21.3265306 22.7322654,20.7977737 C23.9405034,19.7124304 24.6819222,18.9888683 24.9565217,18.6549165 C25.6430206,17.7365492 26,16.6512059 26,15.3988868 C26,13.729128 25.4782609,12.4211503 24.4622426,11.4749536 C23.3913043,10.4730983 21.9908467,10 20.2334096,10 Z" id="Color" fill="#FFCC00" fill-rule="nonzero"></path>
    </g>
</svg>