<?xml version="1.0" encoding="UTF-8"?>
<svg width="24px" height="24px" viewBox="0 0 24 24" version="1.1" xmlns="http://www.w3.org/2000/svg" xmlns:xlink="http://www.w3.org/1999/xlink">
    <title>06_Common_Feedback/common_feedback_success_sm</title>
    <g id="06_Common_Feedback/common_feedback_success_sm" stroke="none" stroke-width="1" fill="none" fill-rule="evenodd">
        <rect id="矩形" x="0" y="0" width="24" height="24"></rect>
        <path d="M12,4 C16.418278,4 20,7.581722 20,12 C20,16.418278 16.418278,20 12,20 C7.581722,20 4,16.418278 4,12 C4,7.581722 7.581722,4 12,4 Z M16.3074706,9.2482829 C16.0303763,8.94040039 15.556159,8.91544158 15.2482765,9.19253584 L15.2482765,9.19253584 L10.7771781,13.2165244 L8.78033009,11.2196764 C8.48743687,10.9267831 8.01256313,10.9267831 7.71966991,11.2196764 C7.4267767,11.5125696 7.4267767,11.9874433 7.71966991,12.2803365 L7.71966991,12.2803365 L10.2196699,14.7803365 C10.5017312,15.0623978 10.9552273,15.0743237 11.2517235,14.8074771 L11.2517235,14.8074771 L16.2517235,10.3074771 C16.5596061,10.0303828 16.5845649,9.55616542 16.3074706,9.2482829 Z" id="Color" fill="#02BF0F" fill-rule="nonzero"></path>
    </g>
</svg>