<?xml version="1.0" encoding="UTF-8"?>
<svg width="24px" height="24px" viewBox="0 0 24 24" version="1.1" xmlns="http://www.w3.org/2000/svg" xmlns:xlink="http://www.w3.org/1999/xlink">
    <title>Feedback/info_sm</title>
    <g id="Feedback/info_sm" stroke="none" stroke-width="1" fill="none" fill-rule="evenodd">
        <rect id="矩形" x="0" y="0" width="24" height="24"></rect>
        <path d="M12,4 C16.418278,4 20,7.581722 20,12 C20,16.418278 16.418278,20 12,20 C7.581722,20 4,16.418278 4,12 C4,7.581722 7.581722,4 12,4 Z M12,10.75 C11.5857864,10.75 11.25,11.0857864 11.25,11.5 L11.25,16 C11.25,16.4142136 11.5857864,16.75 12,16.75 C12.4142136,16.75 12.75,16.4142136 12.75,16 L12.75,11.5 C12.75,11.0857864 12.4142136,10.75 12,10.75 Z M12,7 C11.4477153,7 11,7.44771525 11,8 C11,8.55228475 11.4477153,9 12,9 C12.5522847,9 13,8.55228475 13,8 C13,7.44771525 12.5522847,7 12,7 Z" id="Color" fill="#DCDFE8" fill-rule="nonzero"></path>
    </g>
</svg>