<?xml version="1.0" encoding="UTF-8"?>
<svg width="24px" height="24px" viewBox="0 0 24 24" version="1.1" xmlns="http://www.w3.org/2000/svg" xmlns:xlink="http://www.w3.org/1999/xlink">
    <title>Feedback/question_sm</title>
    <g id="Feedback/question_sm" stroke="none" stroke-width="1" fill="none" fill-rule="evenodd">
        <rect id="矩形" x="0" y="0" width="24" height="24"></rect>
        <path d="M12,4 C16.4184,4 20,7.5816 20,12 C20,16.4184 16.4184,20 12,20 C7.5816,20 4,16.4184 4,12 C4,7.5816 7.5816,4 12,4 Z M12,16 C11.4477153,16 11,16.4477153 11,17 C11,17.5522847 11.4477153,18 12,18 C12.5522847,18 13,17.5522847 13,17 C13,16.4477153 12.5522847,16 12,16 Z M12.2400458,6 C11.0537757,6 10.1311213,6.36734694 9.47208238,7.10204082 C8.81304346,7.80333954 8.5,8.73840444 8.5,9.90723564 L8.5,9.90723564 L9.80160184,9.90723564 C9.80160184,9.0890538 9.98283754,8.45454546 10.3453089,7.98701298 C10.7407323,7.4359926 11.3503433,7.16883114 12.1741419,7.16883114 C12.8661327,7.16883114 13.4098398,7.35250464 13.7887872,7.75324674 C14.1512586,8.12059368 14.3489703,8.6382189 14.3489703,9.30612246 C14.3489703,9.77365494 14.1842105,10.2077922 13.8546911,10.6252319 C13.7558352,10.7588126 13.5581235,10.9591837 13.294508,11.2263451 C12.4048055,12.0278293 11.8610984,12.6623377 11.6304348,13.1632653 C11.4327231,13.580705 11.3338673,14.064935 11.3338673,14.6159555 L11.3338673,14.6159555 L11.3338673,15 L12.6519451,15 L12.6519451,14.6159555 C12.6519451,14.1651206 12.7508009,13.7643785 12.9649886,13.3970315 C13.1297483,13.096475 13.3768879,12.7959184 13.7393592,12.4786642 C14.464302,11.8274582 14.9091533,11.393321 15.073913,11.1929499 C15.4858124,10.6419295 15.7,9.99072354 15.7,9.23933208 C15.7,8.2374768 15.3869565,7.45269018 14.7773456,6.88497216 C14.1347826,6.28385898 13.294508,6 12.2400458,6 Z" id="Color" fill="#FFCC00" fill-rule="nonzero"></path>
    </g>
</svg>