<?xml version="1.0" encoding="UTF-8"?>
<svg width="24px" height="24px" viewBox="0 0 24 24" version="1.1" xmlns="http://www.w3.org/2000/svg" xmlns:xlink="http://www.w3.org/1999/xlink">
    <title>Common/reflash_sm</title>
    <g id="Common/reflash_sm" stroke="none" stroke-width="1" fill="none" fill-rule="evenodd">
        <rect id="矩形" x="0" y="0" width="24" height="24"></rect>
        <path d="M14.9627907,14.3740448 L15.6583356,15.0998893 C14.6498641,16.2637856 13.1609081,17 11.5,17 C8.46243388,17 6,14.5375661 6,11.5 C6,8.46243388 8.46243388,6 11.5,6 C14.3690213,6 16.7249641,8.19674999 16.9775785,11 L19,11 L16.5,13.5 L14,11 L15.9725356,11 C15.7238135,8.75002477 13.8162768,7 11.5,7 C9.01471863,7 7,9.01471863 7,11.5 C7,13.9852814 9.01471863,16 11.5,16 C12.8925457,16 14.1373558,15.3674684 14.9627907,14.3740448 L14.9627907,14.3740448 Z" id="Color" fill="#FFFFFF" fill-rule="nonzero"></path>
    </g>
</svg>