<?xml version="1.0" encoding="UTF-8"?>
<svg width="24px" height="24px" viewBox="0 0 24 24" version="1.1" xmlns="http://www.w3.org/2000/svg" xmlns:xlink="http://www.w3.org/1999/xlink">
    <title>star_full</title>
    <g id="star_full" stroke="none" stroke-width="1" fill="none" fill-rule="evenodd">
        <rect id="矩形" x="0" y="0" width="24" height="24"></rect>
        <path d="M20.1042658,9.32299645 L14.9667124,8.3427942 L14.9667124,8.3427942 L12.4371142,3.78723675 C12.3030589,3.54581638 11.9986757,3.45877979 11.7572554,3.59283507 C11.6755612,3.63819798 11.6082137,3.70554607 11.5628515,3.78724062 L9.0333082,8.3427942 L9.0333082,8.3427942 L3.89568555,9.32300632 C3.62443595,9.3747583 3.44649798,9.63660282 3.49824996,9.90785241 C3.51610085,10.001415 3.56030521,10.0879321 3.62566125,10.1572227 L7.19974161,13.9464717 L7.19974161,13.9464717 L6.55044912,19.10225 C6.51594568,19.3762283 6.71007844,19.6263022 6.98405677,19.6608056 C7.077462,19.6725686 7.17229053,19.6577223 7.25763136,19.6179751 L11.9999794,17.4092379 L11.9999794,17.4092379 L16.7419628,19.6179444 C16.9922836,19.7345381 17.2897266,19.6261308 17.4063203,19.3758099 C17.4460714,19.2904663 17.4609194,19.1956337 17.449156,19.1022244 L16.7998667,13.9464717 L16.7998667,13.9464717 L20.3742738,10.1572297 C20.5637585,9.95635624 20.5545261,9.6399084 20.3536527,9.45042366 C20.2843594,9.38505903 20.197836,9.34084887 20.1042658,9.32299645 Z" id="Color" fill="#000000" fill-rule="nonzero"></path>
    </g>
</svg>