<?xml version="1.0" encoding="UTF-8"?>
<svg width="24px" height="24px" viewBox="0 0 24 24" version="1.1" xmlns="http://www.w3.org/2000/svg" xmlns:xlink="http://www.w3.org/1999/xlink">
    <title>05_Common_Navigation/1_Left/nav_data_standard</title>
    <g id="图标" stroke="none" stroke-width="1" fill="none" fill-rule="evenodd">
        <g id="画板备份" transform="translate(-1151.000000, -238.000000)">
            <g id="05_Common_Navigation/1_Left/nav_data_standard" transform="translate(1151.000000, 238.000000)">
                <rect id="矩形" x="0" y="0" width="24" height="24"></rect>
                <path d="M11.5211479,2.26119207 C11.8196254,2.09838617 12.1803746,2.09838617 12.4788521,2.26119207 L12.4788521,2.26119207 L21.3905248,7.12210443 C21.5590913,7.2140498 21.6976229,7.35258135 21.7895682,7.52114787 C22.054031,8.00599621 21.8753731,8.61343284 21.3905248,8.87789557 L21.3905248,8.87789557 L19.3331382,9.99954382 L21.3905248,11.1221044 C21.8753731,11.3865672 22.054031,11.9940038 21.7895682,12.4788521 C21.6976229,12.6474186 21.5590913,12.7859502 21.3905248,12.8778956 L19.3331382,13.9995438 L21.3905248,15.1221044 C21.8753731,15.3865672 22.054031,15.9940038 21.7895682,16.4788521 C21.6976229,16.6474186 21.5590913,16.7859502 21.3905248,16.8778956 L12.4788521,21.7388079 C12.1803746,21.9016138 11.8196254,21.9016138 11.5211479,21.7388079 L2.60947522,16.8778956 C2.12462688,16.6134328 1.94596905,16.0059962 2.21043177,15.5211479 C2.30237715,15.3525814 2.4409087,15.2140498 2.60947522,15.1221044 L4.6661382,13.9995438 L2.60947522,12.8778956 C2.12462688,12.6134328 1.94596905,12.0059962 2.21043177,11.5211479 C2.30237715,11.3525814 2.4409087,11.2140498 2.60947522,11.1221044 L4.6661382,9.99954382 L2.60947522,8.87789557 C2.474622,8.80433927 2.35899117,8.70096782 2.27105693,8.57625544 L2.21043177,8.47885213 C1.94596905,7.99400379 2.12462688,7.38656716 2.60947522,7.12210443 L2.60947522,7.12210443 Z M6.2321382,14.8535438 L4.93674755,15.5610096 C4.69432809,15.6932496 4.60500999,15.9969711 4.73724999,16.2393906 C4.78322785,16.3236762 4.85250043,16.392942 4.93679054,16.4389116 L11.5211722,20.0298599 C11.8196376,20.1926351 12.1803571,20.1926255 12.4788139,20.0298343 L19.0623352,16.4388988 C19.3047605,16.3066696 19.3940922,16.002952 19.261863,15.7605267 C19.2158975,15.676255 19.1466454,15.6069961 19.0623782,15.5610224 L17.7661382,14.8545438 L12.4788521,17.7388079 C12.1803746,17.9016138 11.8196254,17.9016138 11.5211479,17.7388079 L6.2321382,14.8535438 Z M17.7671382,10.8535438 L12.4788521,13.7388079 C12.1803746,13.9016138 11.8196254,13.9016138 11.5211479,13.7388079 L11.5211479,13.7388079 L6.2321382,10.8535438 L4.93669641,11.5610375 C4.69427695,11.6932775 4.60495885,11.996999 4.73719885,12.2394185 C4.78317236,12.3236961 4.85243627,12.3929569 4.93671595,12.4389267 L6.2331382,13.146 L7.6971382,13.9445438 L11.5201861,16.0298343 C11.8186429,16.1926255 12.1793624,16.1926351 12.4778278,16.0298599 L16.1991382,14 L17.7661382,13.146 L19.0622606,12.4388837 C19.304693,12.3066674 19.3940409,12.0029547 19.2618246,11.7605223 C19.2158594,11.6762401 19.1466022,11.6069725 19.0623271,11.5609945 L17.7671382,10.8535438 Z" id="形状结合" fill="#FFFFFF" fill-rule="nonzero"></path>
            </g>
        </g>
    </g>
</svg>